<svg width="21" height="24" viewBox="0 0 21 24" fill="none" xmlns="http://www.w3.org/2000/svg">
<g clip-path="url(#clip0_753_1463)">
<path d="M20 0.5H17C16.4477 0.5 16 0.947715 16 1.5V22.5C16 23.0523 16.4477 23.5 17 23.5H20C20.5523 23.5 21 23.0523 21 22.5V1.5C21 0.947715 20.5523 0.5 20 0.5Z" fill="#28DD9A"/>
<path d="M19.5 11.1338C20.1667 11.5187 20.1667 12.4809 19.5 12.8658L2.25 22.8251C1.58333 23.21 0.75 22.7289 0.75 21.9591L0.750001 2.04056C0.750001 1.27075 1.58333 0.789629 2.25 1.17453L19.5 11.1338Z" fill="#28DD9A"/>
</g>
<defs>
<clipPath id="clip0_753_1463">
<rect width="21" height="23" fill="white" transform="translate(0 0.5)"/>
</clipPath>
</defs>
</svg>
