<svg width="21" height="18" viewBox="0 0 21 18" fill="none" xmlns="http://www.w3.org/2000/svg">
<g clip-path="url(#clip0_653_1787)">
<path d="M14.8232 17.6223C15.3359 18.1246 16.1685 18.1246 16.6812 17.6223L20.6187 13.7652C21.1314 13.2629 21.1314 12.4473 20.6187 11.9451C20.106 11.4429 19.2734 11.4429 18.7607 11.9451L17.0626 13.6085L17.0626 1.28572C17.0626 0.574554 16.4761 7.55789e-07 15.7501 7.24055e-07C15.0242 6.92322e-07 14.4376 0.574554 14.4376 1.28571L14.4376 13.6085L12.7396 11.9451C12.2269 11.4429 11.3943 11.4429 10.8816 11.9451C10.3689 12.4473 10.3689 13.2629 10.8816 13.7652L14.8191 17.6223L14.8232 17.6223ZM0.385673 4.2308C-0.127022 4.73304 -0.127022 5.54866 0.385673 6.05089C0.898369 6.55313 1.73099 6.55313 2.24368 6.05089L3.93763 4.39152L3.93763 16.7143C3.93763 17.4254 4.52415 18 5.25013 18C5.9761 18 6.56263 17.4254 6.56263 16.7143L6.56263 4.39152L8.26067 6.05491C8.77337 6.55714 9.60599 6.55714 10.1187 6.05491C10.6314 5.55268 10.6314 4.73705 10.1187 4.23482L6.18118 0.377679C5.66849 -0.124553 4.83587 -0.124553 4.32317 0.377679L0.385673 4.23482L0.385673 4.2308Z" fill="#D1D1D1"/>
</g>
<defs>
<clipPath id="clip0_653_1787">
<rect width="18" height="21" fill="white" transform="translate(21) rotate(90)"/>
</clipPath>
</defs>
</svg>
