<svg width="18" height="18" viewBox="0 0 18 18" fill="none" xmlns="http://www.w3.org/2000/svg">
<path d="M16.3267 9.83066C16.834 9.82276 17.1768 9.40043 17.0903 8.88593C17.0038 8.37143 16.5234 7.9592 16.0162 7.96709L9.94694 8.05299L10.0328 1.98377C10.0407 1.47653 9.6285 0.996122 9.114 0.909639C8.5995 0.823155 8.17717 1.16595 8.16927 1.67319L8.07864 8.07857L1.67326 8.1692C1.16602 8.1771 0.823226 8.59943 0.909709 9.11393C0.996193 9.62843 1.4766 10.0407 1.98384 10.0328L8.05306 9.94687L7.96716 16.0161C7.95927 16.5233 8.3715 17.0037 8.886 17.0902C9.4005 17.1767 9.82283 16.8339 9.83073 16.3267L9.92136 9.92129L16.3267 9.83066Z" fill="#D5D5D5"/>
</svg>
