<svg width="15" height="15" viewBox="0 0 15 15" fill="none" xmlns="http://www.w3.org/2000/svg">
<path d="M13.5194 6.53467H13.7759C14.1772 6.53467 14.5 6.21185 14.5 5.81057V1.94871C14.5 1.65606 14.325 1.39055 14.0535 1.27892C13.7819 1.16729 13.4712 1.22763 13.263 1.43581L12.0079 2.69091C9.36493 0.0811413 5.10783 0.0901926 2.47996 2.72109C-0.159986 5.36103 -0.159986 9.63925 2.47996 12.2792C5.1199 14.9191 9.39812 14.9191 12.0381 12.2792C12.4152 11.9021 12.4152 11.2896 12.0381 10.9125C11.6609 10.5353 11.0485 10.5353 10.6713 10.9125C8.78565 12.7981 5.72935 12.7981 3.84368 10.9125C1.958 9.02678 1.958 5.97048 3.84368 4.08481C5.7203 2.20818 8.75247 2.19913 10.6412 4.05463L9.40114 5.29767C9.19296 5.50585 9.13262 5.81661 9.24425 6.08815C9.35588 6.35968 9.62138 6.53467 9.91404 6.53467H13.5194Z" fill="#2B2B2B"/>
</svg>
