<svg width="19" height="18" viewBox="0 0 19 18" fill="none" xmlns="http://www.w3.org/2000/svg">
<path d="M10.857 1.78125C10.857 1.05527 10.2506 0.46875 9.4999 0.46875C8.74923 0.46875 8.14275 1.05527 8.14275 1.78125V7.6875H2.03561C1.28494 7.6875 0.678467 8.27402 0.678467 9C0.678467 9.72598 1.28494 10.3125 2.03561 10.3125H8.14275V16.2188C8.14275 16.9447 8.74923 17.5312 9.4999 17.5312C10.2506 17.5312 10.857 16.9447 10.857 16.2188V10.3125H16.9642C17.7148 10.3125 18.3213 9.72598 18.3213 9C18.3213 8.27402 17.7148 7.6875 16.9642 7.6875H10.857V1.78125Z" fill="#DDDDDD"/>
</svg>
