<svg fill="none" height="64" viewBox="0 0 64 64" width="64" xmlns="http://www.w3.org/2000/svg" xmlns:xlink="http://www.w3.org/1999/xlink"><linearGradient id="a" gradientUnits="userSpaceOnUse" x1="31.9958" x2="31.9958" y1="50.5383" y2="21.0463"><stop offset="0" stop-color="#1d77f2"/><stop offset="1" stop-color="#18c1fa"/></linearGradient><clipPath id="b"><path d="m0 0h64v64h-64z"/></clipPath><g clip-path="url(#b)" clip-rule="evenodd" fill-rule="evenodd"><path d="m-.00000003 50.16v-36.2667c-.00364021-1.822.35254703-3.6268 1.04812003-5.31084.69558-1.68403 1.71685-3.21412 3.00522-4.50249 1.28836-1.28836 2.81845-2.30963 4.50248-3.00521 1.68398-.695574 3.48878-1.0517613 5.31088-1.048121h36.2666c1.8221-.0036403 3.6269.352547 5.3109 1.048121 1.684.69558 3.2141 1.71685 4.5025 3.00521 1.2883 1.28837 2.3096 2.81846 3.0052 4.50249.6956 1.68404 1.0517 3.48884 1.0481 5.31084v36.2667c.0036 1.822-.3525 3.6268-1.0481 5.3108s-1.7169 3.2141-3.0052 4.5025c-1.2884 1.2884-2.8185 2.3096-4.5025 3.0052s-3.4888 1.0518-5.3109 1.0481h-36.2666c-3.6772-.0017-7.20324-1.4631-9.80337-4.0633-2.60014-2.6001-4.06163406-6.1262-4.06333003-9.8033z" fill="#fff"/><path d="m11.7333 13.4667h7.2c1.0522-.0093 2.0664.3926 2.8267 1.12 1.6533 1.4933 2.7733 2.2933 3.4667 2.2933.64 0-2.88 2.9867-10.6134 8.96-.6473.4981-1.4212.8049-2.234.8857s-1.6319-.0676-2.3647-.4284c-.73272-.3608-1.34979-.9196-1.78126-1.6132-.43147-.6935-.66011-1.4939-.66001-2.3107v-4.6934c-.00478-.5501.09917-1.0958.30588-1.6056.20671-.5099.5121-.9739.89865-1.3654.38654-.3915.84662-.7028 1.35384-.916.5072-.2132 1.0515-.3241 1.6016-.3263z" fill="#1aa6f7"/><path d="m20.96 16.8267h31.3067c1.1028.0014 2.1601.4401 2.94 1.22.7798.7798 1.2186 1.8371 1.22 2.94v9.3866c-.0014 1.1029-.4402 2.1602-1.22 2.94-.7799.7799-1.8372 1.2186-2.94 1.22h-31.3067c-1.1029-.0014-2.1602-.4401-2.94-1.22-.7799-.7798-1.2186-1.8371-1.22-2.94v-9.3866c.0104-1.1001.4521-2.1522 1.23-2.9301s1.8299-1.2195 2.93-1.2299z" fill="#1aa6f7"/><path d="m11.1467 19.3867h41.7066c.1331-.0001.2649.026.3879.0769s.2348.1255.3289.2197c.0941.0941.1687.2058.2196.3288s.0771.2548.077.3879v15.6267c.0001.1331-.0261.2649-.077.3879-.0509.1229-.1255.2347-.2196.3288s-.2059.1688-.3289.2197c-.123.0508-.2548.077-.3879.0769h-41.7066c-.1331.0001-.2649-.0261-.3879-.0769-.123-.0509-.2348-.1256-.3289-.2197s-.1687-.2059-.2196-.3288c-.0509-.123-.0771-.2548-.077-.3879v-15.6267c-.0091-.1354.0109-.2712.0586-.3983s.1221-.2425.218-.3384c.096-.096.2114-.1704.3385-.2181.127-.0477.2628-.0676.3983-.0585z" fill="#fff"/><path d="m9.65333 21.04h44.69337c.5514.0007 1.0801.2201 1.47.61s.6093.9186.61 1.47v23.2534c-.0014 1.1028-.4402 2.1601-1.22 2.94-.7799.7798-1.8372 1.2186-2.94 1.22h-40.5334c-1.1028-.0014-2.16013-.4402-2.93997-1.22-.77985-.7799-1.21859-1.8372-1.22-2.94v-23.2534c.00067-.5514.22003-1.0801.60996-1.47s.9186-.6093 1.47004-.61z" fill="url(#a)"/></g></svg>