<svg fill="none" height="24" viewBox="0 0 21 24" width="21" xmlns="http://www.w3.org/2000/svg" xmlns:xlink="http://www.w3.org/1999/xlink"><clipPath id="a"><path d="m0 0h21v23h-21z" transform="matrix(-1 0 0 1 21 .5)"/></clipPath><g clip-path="url(#a)" fill="#28dd9a"><path d="m1 .5h3c.55228 0 1 .447715 1 1v21c0 .5523-.44772 1-1 1h-3c-.552285 0-1-.4477-1-1v-21c0-.552285.447715-1 1-1z"/><path d="m1.5 11.1338c-.666702.3849-.666702 1.3471 0 1.732l17.25 9.9593c.6667.3849 1.5-.0962 1.5-.866v-19.91854c0-.76981-.8333-1.250931-1.5-.86603z"/></g></svg>