<svg width="20" height="28" viewBox="0 0 20 28" fill="none" xmlns="http://www.w3.org/2000/svg">
<path d="M4.61293 0.888672H1.38068C0.785644 0.888672 0.303268 1.39911 0.303268 2.02877V25.9708C0.303268 26.6005 0.785644 27.1109 1.38068 27.1109H4.61293C5.20797 27.1109 5.69034 26.6005 5.69034 25.9708V2.02877C5.69034 1.39911 5.20797 0.888672 4.61293 0.888672Z" fill="#28DD9A"/>
<path d="M18.6193 0.888672H15.3871C14.792 0.888672 14.3097 1.39911 14.3097 2.02877V25.9708C14.3097 26.6005 14.792 27.1109 15.3871 27.1109H18.6193C19.2144 27.1109 19.6967 26.6005 19.6967 25.9708V2.02877C19.6967 1.39911 19.2144 0.888672 18.6193 0.888672Z" fill="#28DD9A"/>
</svg>
