<svg width="12" height="12" viewBox="0 0 12 12" fill="none" xmlns="http://www.w3.org/2000/svg">
<path d="M11.7682 1.40663C12.1213 1.04237 12.065 0.501342 11.6401 0.198688C11.2151 -0.103966 10.5839 -0.0557555 10.2308 0.3085L6 4.66082L1.76915 0.3085C1.41606 -0.0557555 0.784872 -0.103966 0.359912 0.198688C-0.0650471 0.501342 -0.121292 1.04237 0.2318 1.40663L4.697 6L0.2318 10.5934C-0.121292 10.9576 -0.0650471 11.4987 0.359912 11.8013C0.784872 12.104 1.41606 12.0558 1.76915 11.6915L6 7.33918L10.2308 11.6915C10.5839 12.0558 11.2151 12.104 11.6401 11.8013C12.065 11.4987 12.1213 10.9576 11.7682 10.5934L7.303 6L11.7682 1.40663Z" fill="#D5D5D5"/>
</svg>
