<svg width="22" height="22" viewBox="0 0 22 22" fill="none" xmlns="http://www.w3.org/2000/svg">
<g clip-path="url(#clip0_1044_3118)">
<path fill-rule="evenodd" clip-rule="evenodd" d="M1.1 0C0.492486 0 0 0.492486 0 1.1V8.8C0 9.40752 0.492486 9.9 1.1 9.9H8.8C9.40752 9.9 9.9 9.40752 9.9 8.8V1.1C9.9 0.492486 9.40752 0 8.8 0H1.1ZM2.97 2.2C2.54474 2.2 2.2 2.54474 2.2 2.97V6.93C2.2 7.35526 2.54474 7.7 2.97 7.7H6.93C7.35526 7.7 7.7 7.35526 7.7 6.93V2.97C7.7 2.54474 7.35526 2.2 6.93 2.2H2.97Z" fill="#D2D2D2"/>
<path fill-rule="evenodd" clip-rule="evenodd" d="M1.1 12.1C0.492486 12.1 0 12.5924 0 13.2V20.9C0 21.5075 0.492486 22 1.1 22H8.8C9.40752 22 9.9 21.5075 9.9 20.9V13.2C9.9 12.5924 9.40752 12.1 8.8 12.1H1.1ZM2.97 14.3C2.54474 14.3 2.2 14.6447 2.2 15.07V19.03C2.2 19.4552 2.54474 19.8 2.97 19.8H6.93C7.35526 19.8 7.7 19.4552 7.7 19.03V15.07C7.7 14.6447 7.35526 14.3 6.93 14.3H2.97Z" fill="#D2D2D2"/>
<path fill-rule="evenodd" clip-rule="evenodd" d="M13.2001 12.1C12.5926 12.1 12.1001 12.5924 12.1001 13.2V20.9C12.1001 21.5075 12.5926 22 13.2001 22H20.9001C21.5076 22 22.0001 21.5075 22.0001 20.9V13.2C22.0001 12.5924 21.5076 12.1 20.9001 12.1H13.2001ZM15.0701 14.3C14.6448 14.3 14.3001 14.6447 14.3001 15.07V19.03C14.3001 19.4552 14.6448 19.8 15.0701 19.8H19.0301C19.4554 19.8 19.8001 19.4552 19.8001 19.03V15.07C19.8001 14.6447 19.4554 14.3 19.0301 14.3H15.0701Z" fill="#D2D2D2"/>
<path fill-rule="evenodd" clip-rule="evenodd" d="M13.2001 0C12.5926 0 12.1001 0.492486 12.1001 1.1V8.8C12.1001 9.40752 12.5926 9.9 13.2001 9.9H20.9001C21.5076 9.9 22.0001 9.40752 22.0001 8.8V1.1C22.0001 0.492486 21.5076 0 20.9001 0H13.2001ZM15.0701 2.2C14.6448 2.2 14.3001 2.54474 14.3001 2.97V6.93C14.3001 7.35526 14.6448 7.7 15.0701 7.7H19.0301C19.4554 7.7 19.8001 7.35526 19.8001 6.93V2.97C19.8001 2.54474 19.4554 2.2 19.0301 2.2H15.0701Z" fill="#D2D2D2"/>
</g>
<defs>
<clipPath id="clip0_1044_3118">
<rect width="22" height="22" fill="white"/>
</clipPath>
</defs>
</svg>
