<svg width="20" height="18" viewBox="0 0 20 18" fill="none" xmlns="http://www.w3.org/2000/svg">
<path d="M0 1.85716C0 1.06698 0.638393 0.428589 1.42857 0.428589H18.5714C19.3616 0.428589 20 1.06698 20 1.85716C20 2.64734 19.3616 3.28573 18.5714 3.28573H1.42857C0.638393 3.28573 0 2.64734 0 1.85716ZM0 9.00002C0 8.20984 0.638393 7.57145 1.42857 7.57145H18.5714C19.3616 7.57145 20 8.20984 20 9.00002C20 9.7902 19.3616 10.4286 18.5714 10.4286H1.42857C0.638393 10.4286 0 9.7902 0 9.00002ZM20 16.1429C20 16.9331 19.3616 17.5714 18.5714 17.5714H1.42857C0.638393 17.5714 0 16.9331 0 16.1429C0 15.3527 0.638393 14.7143 1.42857 14.7143H18.5714C19.3616 14.7143 20 15.3527 20 16.1429Z" fill="#D2D2D2"/>
</svg>
