<svg width="64" height="64" viewBox="0 0 64 64" fill="none" xmlns="http://www.w3.org/2000/svg">
<g clip-path="url(#clip0_1027_2748)">
<path fill-rule="evenodd" clip-rule="evenodd" d="M50.1334 64H13.8667C12.0447 64.0037 10.2399 63.6475 8.55585 62.9519C6.87182 62.2563 5.34172 61.2351 4.05336 59.9467C2.765 58.6583 1.74372 57.1282 1.04815 55.4442C0.352574 53.7602 -0.00361328 51.9554 2.76331e-05 50.1334V13.8667C-0.00361328 12.0447 0.352574 10.2399 1.04815 8.55585C1.74372 6.87182 2.765 5.34172 4.05336 4.05336C5.34172 2.765 6.87182 1.74372 8.55585 1.04815C10.2399 0.352574 12.0447 -0.00361328 13.8667 2.76331e-05H50.1334C51.9554 -0.00361328 53.7602 0.352574 55.4442 1.04815C57.1282 1.74372 58.6583 2.765 59.9467 4.05336C61.2351 5.34172 62.2563 6.87182 62.9519 8.55585C63.6475 10.2399 64.0037 12.0447 64 13.8667V50.1334C64.0037 51.9554 63.6475 53.7602 62.9519 55.4442C62.2563 57.1282 61.2351 58.6583 59.9467 59.9467C58.6583 61.2351 57.1282 62.2563 55.4442 62.9519C53.7602 63.6475 51.9554 64.0037 50.1334 64Z" fill="url(#paint0_linear_1027_2748)"/>
<path fill-rule="evenodd" clip-rule="evenodd" d="M46.9333 38.6666V40.5332C46.9327 41.7315 46.8256 42.9273 46.6133 44.1066C46.5098 44.7077 46.2864 45.2818 45.9566 45.7948C45.6268 46.3079 45.1972 46.7495 44.6933 47.0932H44.64C43.5767 47.9001 42.2934 48.3651 40.96 48.4266L39.9467 48.5332C39.1514 48.582 38.3559 48.4433 37.6241 48.1283C36.8922 47.8134 36.2446 47.3309 35.7333 46.7199C35.2014 46.0754 34.8516 45.3003 34.7203 44.475C34.589 43.6497 34.681 42.8043 34.9867 42.0266V41.9732C35.2659 41.2125 35.7283 40.5324 36.333 39.9928C36.9376 39.4533 37.6659 39.0711 38.4533 38.8799L42.4533 37.8132C42.9565 37.6933 43.4042 37.4067 43.7238 37C44.0434 36.5933 44.2159 36.0905 44.2133 35.5732V32.8532V21.3866C44.217 21.2542 44.19 21.1227 44.1345 21.0024C44.079 20.8822 43.9965 20.7764 43.8933 20.6932C43.7874 20.615 43.666 20.5602 43.5373 20.5326C43.4085 20.5051 43.2754 20.5053 43.1467 20.5332L26.08 23.9999C25.7775 24.0483 25.5028 24.2046 25.3067 24.4399C25.1106 24.6752 25.0064 24.9737 25.0133 25.2799V43.5199V44.8532C25.0127 46.0515 24.9056 47.2473 24.6933 48.4266C24.5898 49.0277 24.3664 49.6018 24.0366 50.1149C23.7068 50.6279 23.2772 51.0695 22.7733 51.4132H22.72C21.6567 52.2201 20.3734 52.6851 19.04 52.7466L18.08 52.7999C17.2848 52.8486 16.4892 52.7099 15.7574 52.395C15.0256 52.08 14.3779 51.5976 13.8667 50.9866C13.3347 50.3421 12.9849 49.567 12.8536 48.7417C12.7223 47.9164 12.8143 47.071 13.12 46.2932V46.2399C13.3993 45.4792 13.8617 44.799 14.4663 44.2595C15.0709 43.72 15.7992 43.3377 16.5867 43.1466L20.5867 42.0799C21.0898 41.96 21.5376 41.6734 21.8571 41.2667C22.1767 40.86 22.3492 40.3571 22.3467 39.8399V37.1199V15.9466C22.3526 15.4915 22.5148 15.0524 22.8062 14.7028C23.0975 14.3532 23.5002 14.1145 23.9467 14.0266L45.3333 10.1332C45.7264 10.0871 46.1232 10.1816 46.4533 10.3999C46.6032 10.5229 46.7239 10.6776 46.8069 10.8528C46.8899 11.028 46.9331 11.2194 46.9333 11.4132V38.6666Z" fill="#BB58BB"/>
<path fill-rule="evenodd" clip-rule="evenodd" d="M46.9333 38.6666V40.5332C46.9327 41.7315 46.8256 42.9273 46.6133 44.1066C46.5098 44.7077 46.2864 45.2818 45.9566 45.7948C45.6268 46.3079 45.1972 46.7495 44.6933 47.0932H44.64C43.5767 47.9001 42.2934 48.3651 40.96 48.4266L39.9467 48.5332C39.1514 48.582 38.3559 48.4433 37.6241 48.1283C36.8922 47.8134 36.2446 47.3309 35.7333 46.7199C35.2014 46.0754 34.8516 45.3003 34.7203 44.475C34.589 43.6497 34.681 42.8043 34.9867 42.0266V41.9732C35.2659 41.2125 35.7283 40.5324 36.333 39.9928C36.9376 39.4533 37.6659 39.0711 38.4533 38.8799L42.4533 37.8132C42.9565 37.6933 43.4042 37.4067 43.7238 37C44.0434 36.5933 44.2159 36.0905 44.2133 35.5732V32.8532V21.3866C44.217 21.2542 44.19 21.1227 44.1345 21.0024C44.079 20.8822 43.9965 20.7764 43.8933 20.6932C43.7874 20.615 43.666 20.5602 43.5373 20.5326C43.4085 20.5051 43.2754 20.5053 43.1467 20.5332L26.08 23.9999C25.7775 24.0483 25.5028 24.2046 25.3067 24.4399C25.1106 24.6752 25.0064 24.9737 25.0133 25.2799V43.5199V44.8532C25.0127 46.0515 24.9056 47.2473 24.6933 48.4266C24.5898 49.0277 24.3664 49.6018 24.0366 50.1149C23.7068 50.6279 23.2772 51.0695 22.7733 51.4132H22.72C21.6567 52.2201 20.3734 52.6851 19.04 52.7466L18.08 52.7999C17.2848 52.8486 16.4892 52.7099 15.7574 52.395C15.0256 52.08 14.3779 51.5976 13.8667 50.9866C13.3347 50.3421 12.9849 49.567 12.8536 48.7417C12.7223 47.9164 12.8143 47.071 13.12 46.2932V46.2399C13.3993 45.4792 13.8617 44.799 14.4663 44.2595C15.0709 43.72 15.7992 43.3377 16.5867 43.1466L20.5867 42.0799C21.0898 41.96 21.5376 41.6734 21.8571 41.2667C22.1767 40.86 22.3492 40.3571 22.3467 39.8399V37.1199V15.9466C22.3526 15.4915 22.5148 15.0524 22.8062 14.7028C23.0975 14.3532 23.5002 14.1145 23.9467 14.0266L45.3333 10.1332C45.7264 10.0871 46.1232 10.1816 46.4533 10.3999C46.6032 10.5229 46.7239 10.6776 46.8069 10.8528C46.8899 11.028 46.9331 11.2194 46.9333 11.4132V38.6666Z" fill="url(#paint1_radial_1027_2748)"/>
<path fill-rule="evenodd" clip-rule="evenodd" d="M46.9333 38.6666V40.5332C46.9327 41.7315 46.8256 42.9273 46.6133 44.1066C46.5098 44.7077 46.2864 45.2818 45.9566 45.7948C45.6268 46.3079 45.1972 46.7495 44.6933 47.0932H44.64C43.5767 47.9001 42.2934 48.3651 40.96 48.4266L39.9467 48.5332C39.1514 48.582 38.3559 48.4433 37.6241 48.1283C36.8922 47.8134 36.2446 47.3309 35.7333 46.7199C35.2014 46.0754 34.8516 45.3003 34.7203 44.475C34.589 43.6497 34.681 42.8043 34.9867 42.0266V41.9732C35.2659 41.2125 35.7283 40.5324 36.333 39.9928C36.9376 39.4533 37.6659 39.0711 38.4533 38.8799L42.4533 37.8132C42.9565 37.6933 43.4042 37.4067 43.7238 37C44.0434 36.5933 44.2159 36.0905 44.2133 35.5732V32.8532V21.3866C44.217 21.2542 44.19 21.1227 44.1345 21.0024C44.079 20.8822 43.9965 20.7764 43.8933 20.6932C43.7874 20.615 43.666 20.5602 43.5373 20.5326C43.4085 20.5051 43.2754 20.5053 43.1467 20.5332L26.08 23.9999C25.7775 24.0483 25.5028 24.2046 25.3067 24.4399C25.1106 24.6752 25.0064 24.9737 25.0133 25.2799V43.5199V44.8532C25.0127 46.0515 24.9056 47.2473 24.6933 48.4266C24.5898 49.0277 24.3664 49.6018 24.0366 50.1149C23.7068 50.6279 23.2772 51.0695 22.7733 51.4132H22.72C21.6567 52.2201 20.3734 52.6851 19.04 52.7466L18.08 52.7999C17.2848 52.8486 16.4892 52.7099 15.7574 52.395C15.0256 52.08 14.3779 51.5976 13.8667 50.9866C13.3347 50.3421 12.9849 49.567 12.8536 48.7417C12.7223 47.9164 12.8143 47.071 13.12 46.2932V46.2399C13.3993 45.4792 13.8617 44.799 14.4663 44.2595C15.0709 43.72 15.7992 43.3377 16.5867 43.1466L20.5867 42.0799C21.0898 41.96 21.5376 41.6734 21.8571 41.2667C22.1767 40.86 22.3492 40.3571 22.3467 39.8399V37.1199V15.9466C22.3526 15.4915 22.5148 15.0524 22.8062 14.7028C23.0975 14.3532 23.5002 14.1145 23.9467 14.0266L45.3333 10.1332C45.7264 10.0871 46.1232 10.1816 46.4533 10.3999C46.6032 10.5229 46.7239 10.6776 46.8069 10.8528C46.8899 11.028 46.9331 11.2194 46.9333 11.4132V38.6666Z" fill="url(#paint2_radial_1027_2748)"/>
<path fill-rule="evenodd" clip-rule="evenodd" d="M46.9333 38.6666V40.5332C46.9327 41.7315 46.8256 42.9273 46.6133 44.1066C46.5098 44.7077 46.2864 45.2818 45.9566 45.7948C45.6268 46.3079 45.1972 46.7495 44.6933 47.0932H44.64C43.5767 47.9001 42.2934 48.3651 40.96 48.4266L39.9467 48.5332C39.1514 48.582 38.3559 48.4433 37.6241 48.1283C36.8922 47.8134 36.2446 47.3309 35.7333 46.7199C35.2014 46.0754 34.8516 45.3003 34.7203 44.475C34.589 43.6497 34.681 42.8043 34.9867 42.0266V41.9732C35.2659 41.2125 35.7283 40.5324 36.333 39.9928C36.9376 39.4533 37.6659 39.0711 38.4533 38.8799L42.4533 37.8132C42.9565 37.6933 43.4042 37.4067 43.7238 37C44.0434 36.5933 44.2159 36.0905 44.2133 35.5732V32.8532V21.3866C44.217 21.2542 44.19 21.1227 44.1345 21.0024C44.079 20.8822 43.9965 20.7764 43.8933 20.6932C43.7874 20.615 43.666 20.5602 43.5373 20.5326C43.4085 20.5051 43.2754 20.5053 43.1467 20.5332L26.08 23.9999C25.7775 24.0483 25.5028 24.2046 25.3067 24.4399C25.1106 24.6752 25.0064 24.9737 25.0133 25.2799V43.5199V44.8532C25.0127 46.0515 24.9056 47.2473 24.6933 48.4266C24.5898 49.0277 24.3664 49.6018 24.0366 50.1149C23.7068 50.6279 23.2772 51.0695 22.7733 51.4132H22.72C21.6567 52.2201 20.3734 52.6851 19.04 52.7466L18.08 52.7999C17.2848 52.8486 16.4892 52.7099 15.7574 52.395C15.0256 52.08 14.3779 51.5976 13.8667 50.9866C13.3347 50.3421 12.9849 49.567 12.8536 48.7417C12.7223 47.9164 12.8143 47.071 13.12 46.2932V46.2399C13.3993 45.4792 13.8617 44.799 14.4663 44.2595C15.0709 43.72 15.7992 43.3377 16.5867 43.1466L20.5867 42.0799C21.0898 41.96 21.5376 41.6734 21.8571 41.2667C22.1767 40.86 22.3492 40.3571 22.3467 39.8399V37.1199V15.9466C22.3526 15.4915 22.5148 15.0524 22.8062 14.7028C23.0975 14.3532 23.5002 14.1145 23.9467 14.0266L45.3333 10.1332C45.7264 10.0871 46.1232 10.1816 46.4533 10.3999C46.6032 10.5229 46.7239 10.6776 46.8069 10.8528C46.8899 11.028 46.9331 11.2194 46.9333 11.4132V38.6666Z" fill="url(#paint3_linear_1027_2748)"/>
<path fill-rule="evenodd" clip-rule="evenodd" d="M46.9333 38.6666V40.5332C46.9327 41.7315 46.8256 42.9273 46.6133 44.1066C46.5098 44.7077 46.2864 45.2818 45.9566 45.7948C45.6268 46.3079 45.1972 46.7495 44.6933 47.0932H44.64C43.5767 47.9001 42.2934 48.3651 40.96 48.4266L39.9467 48.5332C39.1514 48.582 38.3559 48.4433 37.6241 48.1283C36.8922 47.8134 36.2446 47.3309 35.7333 46.7199C35.2014 46.0754 34.8516 45.3003 34.7203 44.475C34.589 43.6497 34.681 42.8043 34.9867 42.0266V41.9732C35.2659 41.2125 35.7283 40.5324 36.333 39.9928C36.9376 39.4533 37.6659 39.0711 38.4533 38.8799L42.4533 37.8132C42.9565 37.6933 43.4042 37.4067 43.7238 37C44.0434 36.5933 44.2159 36.0905 44.2133 35.5732V32.8532V21.3866C44.217 21.2542 44.19 21.1227 44.1345 21.0024C44.079 20.8822 43.9965 20.7764 43.8933 20.6932C43.7874 20.615 43.666 20.5602 43.5373 20.5326C43.4085 20.5051 43.2754 20.5053 43.1467 20.5332L26.08 23.9999C25.7775 24.0483 25.5028 24.2046 25.3067 24.4399C25.1106 24.6752 25.0064 24.9737 25.0133 25.2799V43.5199V44.8532C25.0127 46.0515 24.9056 47.2473 24.6933 48.4266C24.5898 49.0277 24.3664 49.6018 24.0366 50.1149C23.7068 50.6279 23.2772 51.0695 22.7733 51.4132H22.72C21.6567 52.2201 20.3734 52.6851 19.04 52.7466L18.08 52.7999C17.2848 52.8486 16.4892 52.7099 15.7574 52.395C15.0256 52.08 14.3779 51.5976 13.8667 50.9866C13.3347 50.3421 12.9849 49.567 12.8536 48.7417C12.7223 47.9164 12.8143 47.071 13.12 46.2932V46.2399C13.3993 45.4792 13.8617 44.799 14.4663 44.2595C15.0709 43.72 15.7992 43.3377 16.5867 43.1466L20.5867 42.0799C21.0898 41.96 21.5376 41.6734 21.8571 41.2667C22.1767 40.86 22.3492 40.3571 22.3467 39.8399V37.1199V15.9466C22.3526 15.4915 22.5148 15.0524 22.8062 14.7028C23.0975 14.3532 23.5002 14.1145 23.9467 14.0266L45.3333 10.1332C45.7264 10.0871 46.1232 10.1816 46.4533 10.3999C46.6032 10.5229 46.7239 10.6776 46.8069 10.8528C46.8899 11.028 46.9331 11.2194 46.9333 11.4132V38.6666Z" fill="white"/>
</g>
<defs>
<linearGradient id="paint0_linear_1027_2748" x1="32" y1="64" x2="32" y2="3.05176e-05" gradientUnits="userSpaceOnUse">
<stop stop-color="#FD355A"/>
<stop offset="1" stop-color="#FD5163"/>
</linearGradient>
<radialGradient id="paint1_radial_1027_2748" cx="0" cy="0" r="1" gradientUnits="userSpaceOnUse" gradientTransform="translate(20.064 48.2071) rotate(90) scale(26.9936)">
<stop stop-color="#7470F9"/>
<stop offset="1" stop-color="#7A70FE" stop-opacity="0"/>
</radialGradient>
<radialGradient id="paint2_radial_1027_2748" cx="0" cy="0" r="1" gradientUnits="userSpaceOnUse" gradientTransform="translate(41.3606 42.0458) rotate(-105.538) scale(21.7888)">
<stop stop-color="#4CA3F8"/>
<stop offset="0.362" stop-color="#4CA4F7"/>
<stop offset="1" stop-color="#4AA2F9" stop-opacity="0"/>
</radialGradient>
<linearGradient id="paint3_linear_1027_2748" x1="25.761" y1="18.338" x2="35.161" y2="35.4031" gradientUnits="userSpaceOnUse">
<stop stop-color="#FF6380"/>
<stop offset="1" stop-color="#F65E79" stop-opacity="0"/>
</linearGradient>
<clipPath id="clip0_1027_2748">
<rect width="64" height="64" fill="white"/>
</clipPath>
</defs>
</svg>
